# xmcd
#
# Track frame offsets: 
#        150
#        18362
#        35070
#
# Disc length: 697 seconds
#
# Revision: 9
# Processed by: cddbd v1.5.2PL0 Copyright (c) Steve Scherf et al.
# Submitted via: ExactAudioCopyFreeDBPlugin 1.0
#
DISCID=1d02b703
DTITLE=Tribe After Tribe - Ice Below
DYEAR=1993
DGENRE=Hard Rock
TTITLE0=Ice Below
TTITLE1=Childspeak
TTITLE2=Sinnerman
EXTD=YEAR: 1993
EXTT0=
EXTT1=
EXTT2=
PLAYORDER=
